# Blender v2.90.0 OBJ File: 'burger.blend'
# www.blender.org
o Sphere
v 0.000000 1.414463 -0.195090
v 0.000000 1.274469 -0.707107
v 0.000000 1.196955 -0.831470
v 0.000000 1.108519 -0.923880
v 0.000000 1.012560 -0.980785
v 0.000000 0.912767 -1.000000
v 0.000000 0.812973 -0.980785
v 0.074658 1.414463 -0.180240
v 0.146447 1.385354 -0.353553
v 0.212608 1.338084 -0.513280
v 0.270598 1.274469 -0.653281
v 0.318190 1.196955 -0.768178
v 0.353554 1.108519 -0.853553
v 0.375330 1.012560 -0.906127
v 0.382684 0.912767 -0.923880
v 0.375330 0.812973 -0.906127
v 0.137950 1.414463 -0.137950
v 0.270598 1.385354 -0.270598
v 0.392848 1.338084 -0.392847
v 0.500000 1.274469 -0.500000
v 0.587938 1.196955 -0.587938
v 0.653282 1.108519 -0.653281
v 0.693520 1.012560 -0.693520
v 0.707107 0.912767 -0.707107
v 0.693520 0.812973 -0.693520
v 0.180240 1.414463 -0.074658
v 0.353554 1.385354 -0.146446
v 0.513280 1.338084 -0.212607
v 0.653282 1.274469 -0.270598
v 0.768178 1.196955 -0.318189
v 0.853554 1.108519 -0.353553
v 0.906128 1.012560 -0.375330
v 0.923880 0.912767 -0.382683
v 0.906128 0.812973 -0.375330
v 0.195091 1.414463 0.000000
v 0.382684 1.385354 0.000000
v 0.555571 1.338084 0.000000
v 0.707107 1.274469 0.000000
v 0.831470 1.196955 0.000000
v 0.923880 1.108519 0.000000
v 0.980786 1.012560 0.000000
v 1.000000 0.912767 0.000000
v 0.980786 0.812973 0.000000
v 0.180240 1.414463 0.074658
v 0.353554 1.385354 0.146447
v 0.513280 1.338084 0.212608
v 0.653282 1.274469 0.270599
v 0.768178 1.196955 0.318190
v 0.853554 1.108519 0.353554
v 0.906128 1.012560 0.375331
v 0.923880 0.912767 0.382684
v 0.906128 0.812973 0.375331
v 0.137950 1.414463 0.137950
v 0.270598 1.385354 0.270599
v 0.392848 1.338084 0.392848
v 0.500000 1.274469 0.500000
v 0.587938 1.196955 0.587938
v 0.653282 1.108519 0.653282
v 0.693520 1.012560 0.693520
v 0.707107 0.912767 0.707107
v 0.693520 0.812973 0.693520
v 0.074658 1.414463 0.180241
v 0.146447 1.385354 0.353554
v 0.212608 1.338084 0.513281
v 0.270598 1.274469 0.653282
v 0.318190 1.196955 0.768178
v 0.353553 1.108519 0.853554
v 0.375330 1.012560 0.906128
v 0.382683 0.912767 0.923880
v 0.375330 0.812973 0.906128
v -0.000000 1.414463 0.195091
v -0.000000 1.385354 0.382684
v -0.000000 1.338084 0.555571
v -0.000000 1.274469 0.707107
v -0.000000 1.196955 0.831470
v -0.000000 1.108519 0.923880
v -0.000000 1.012560 0.980786
v -0.000000 0.912767 1.000000
v -0.000000 0.812973 0.980786
v -0.074658 1.414463 0.180241
v -0.146447 1.385354 0.353554
v -0.212608 1.338084 0.513280
v -0.270598 1.274469 0.653282
v -0.318190 1.196955 0.768178
v -0.353554 1.108519 0.853554
v -0.375330 1.012560 0.906128
v -0.382684 0.912767 0.923880
v -0.375330 0.812973 0.906128
v -0.137950 1.414463 0.137950
v -0.270598 1.385354 0.270598
v -0.392848 1.338084 0.392848
v -0.500000 1.274469 0.500000
v -0.587938 1.196955 0.587938
v -0.653282 1.108519 0.653282
v -0.693520 1.012560 0.693520
v -0.707107 0.912767 0.707107
v -0.693520 0.812973 0.693520
v -0.000000 1.424292 0.000000
v -0.180240 1.414463 0.074658
v -0.353554 1.385354 0.146447
v -0.513280 1.338084 0.212608
v -0.653282 1.274469 0.270598
v -0.768178 1.196955 0.318190
v -0.853554 1.108519 0.353553
v -0.906127 1.012560 0.375330
v -0.923880 0.912767 0.382683
v -0.906127 0.812973 0.375330
v -0.195091 1.414463 0.000000
v -0.382684 1.385354 0.000000
v -0.555570 1.338084 0.000000
v -0.707107 1.274469 0.000000
v -0.831470 1.196955 -0.000000
v -0.923880 1.108519 -0.000000
v -0.980785 1.012560 0.000000
v -1.000000 0.912767 -0.000000
v -0.980785 0.812973 0.000000
v -0.180240 1.414463 -0.074658
v -0.353554 1.385354 -0.146446
v -0.513280 1.338084 -0.212608
v -0.653281 1.274469 -0.270598
v -0.768178 1.196955 -0.318190
v -0.853553 1.108519 -0.353553
v -0.906127 1.012560 -0.375330
v -0.923880 0.912767 -0.382684
v -0.906127 0.812973 -0.375330
v -0.137950 1.414463 -0.137950
v -0.270598 1.385354 -0.270598
v -0.392847 1.338084 -0.392847
v -0.500000 1.274469 -0.500000
v -0.587937 1.196955 -0.587938
v -0.653281 1.108519 -0.653282
v -0.693520 1.012560 -0.693520
v -0.707107 0.912767 -0.707107
v -0.693520 0.812973 -0.693520
v -0.074658 1.414463 -0.180240
v -0.146447 1.385354 -0.353553
v -0.212607 1.338084 -0.513280
v -0.270598 1.274469 -0.653281
v -0.318189 1.196955 -0.768178
v -0.353553 1.108519 -0.853553
v -0.375330 1.012560 -0.906127
v -0.382683 0.912767 -0.923880
v -0.375330 0.812973 -0.906127
v 0.000000 1.385354 -0.382683
v 0.000000 1.338084 -0.555570
vt 0.750000 0.812500
vt 0.687500 0.750000
vt 0.750000 0.750000
vt 0.687500 0.687500
vt 0.750000 0.687500
vt 0.687500 0.625000
vt 0.750000 0.625000
vt 0.687500 0.562500
vt 0.750000 0.562500
vt 0.687500 0.500000
vt 0.750000 0.500000
vt 0.750000 0.937500
vt 0.718750 1.000000
vt 0.687500 0.937500
vt 0.687500 0.437500
vt 0.750000 0.437500
vt 0.750000 0.875000
vt 0.687500 0.875000
vt 0.687500 0.812500
vt 0.625000 0.812500
vt 0.625000 0.750000
vt 0.625000 0.687500
vt 0.625000 0.625000
vt 0.625000 0.562500
vt 0.625000 0.500000
vt 0.656250 1.000000
vt 0.625000 0.937500
vt 0.625000 0.437500
vt 0.625000 0.875000
vt 0.562500 0.562500
vt 0.562500 0.500000
vt 0.593750 1.000000
vt 0.562500 0.937500
vt 0.562500 0.437500
vt 0.562500 0.875000
vt 0.562500 0.812500
vt 0.562500 0.750000
vt 0.562500 0.687500
vt 0.562500 0.625000
vt 0.500000 0.750000
vt 0.500000 0.687500
vt 0.500000 0.625000
vt 0.500000 0.562500
vt 0.500000 0.500000
vt 0.531250 1.000000
vt 0.500000 0.937500
vt 0.500000 0.437500
vt 0.500000 0.875000
vt 0.500000 0.812500
vt 0.437500 0.562500
vt 0.437500 0.500000
vt 0.468750 1.000000
vt 0.437500 0.937500
vt 0.437500 0.437500
vt 0.437500 0.875000
vt 0.437500 0.812500
vt 0.437500 0.750000
vt 0.437500 0.687500
vt 0.437500 0.625000
vt 0.375000 0.750000
vt 0.375000 0.687500
vt 0.375000 0.625000
vt 0.375000 0.562500
vt 0.375000 0.500000
vt 0.406250 1.000000
vt 0.375000 0.937500
vt 0.375000 0.437500
vt 0.375000 0.875000
vt 0.375000 0.812500
vt 0.312500 0.562500
vt 0.312500 0.500000
vt 0.343750 1.000000
vt 0.312500 0.937500
vt 0.312500 0.437500
vt 0.312500 0.875000
vt 0.312500 0.812500
vt 0.312500 0.750000
vt 0.312500 0.687500
vt 0.312500 0.625000
vt 0.250000 0.750000
vt 0.250000 0.687500
vt 0.250000 0.625000
vt 0.250000 0.562500
vt 0.250000 0.500000
vt 0.281250 1.000000
vt 0.250000 0.937500
vt 0.250000 0.437500
vt 0.250000 0.875000
vt 0.250000 0.812500
vt 0.187500 0.437500
vt 0.187500 0.875000
vt 0.187500 0.812500
vt 0.187500 0.750000
vt 0.187500 0.687500
vt 0.187500 0.625000
vt 0.187500 0.562500
vt 0.187500 0.500000
vt 0.218750 1.000000
vt 0.187500 0.937500
vt 0.125000 0.625000
vt 0.125000 0.562500
vt 0.125000 0.500000
vt 0.156250 1.000000
vt 0.125000 0.937500
vt 0.125000 0.437500
vt 0.125000 0.875000
vt 0.125000 0.812500
vt 0.125000 0.750000
vt 0.125000 0.687500
vt 0.062500 0.875000
vt 0.062500 0.812500
vt 0.062500 0.750000
vt 0.062500 0.687500
vt 0.062500 0.625000
vt 0.062500 0.562500
vt 0.062500 0.500000
vt 0.093750 1.000000
vt 0.062500 0.937500
vt 0.062500 0.437500
vt 0.000000 0.625000
vt 0.000000 0.562500
vt 0.000000 0.500000
vt 0.031250 1.000000
vt 0.000000 0.937500
vt 0.000000 0.437500
vt 0.000000 0.875000
vt 0.000000 0.812500
vt 0.000000 0.750000
vt 0.000000 0.687500
vt 1.000000 0.812500
vt 0.937500 0.875000
vt 0.937500 0.812500
vt 0.937500 0.750000
vt 1.000000 0.750000
vt 1.000000 0.687500
vt 0.937500 0.687500
vt 0.937500 0.625000
vt 1.000000 0.625000
vt 0.937500 0.562500
vt 1.000000 0.562500
vt 1.000000 0.500000
vt 0.937500 0.500000
vt 1.000000 0.937500
vt 0.968750 1.000000
vt 0.937500 0.937500
vt 0.937500 0.437500
vt 1.000000 0.437500
vt 1.000000 0.875000
vt 0.875000 0.562500
vt 0.875000 0.500000
vt 0.906250 1.000000
vt 0.875000 0.937500
vt 0.875000 0.437500
vt 0.875000 0.875000
vt 0.875000 0.812500
vt 0.875000 0.750000
vt 0.875000 0.687500
vt 0.875000 0.625000
vt 0.812500 0.812500
vt 0.812500 0.750000
vt 0.812500 0.687500
vt 0.812500 0.625000
vt 0.812500 0.562500
vt 0.812500 0.500000
vt 0.843750 1.000000
vt 0.812500 0.937500
vt 0.812500 0.437500
vt 0.812500 0.875000
vt 0.781250 1.000000
vn 0.0768 0.9193 -0.3859
vn 0.1046 0.8440 -0.5261
vn 0.1362 0.7157 -0.6850
vn 0.1686 0.5028 -0.8478
vn 0.1917 0.1856 -0.9638
vn 0.0100 0.9987 -0.0503
vn 0.1917 -0.1856 -0.9638
vn 0.0305 0.9877 -0.1533
vn 0.0524 0.9633 -0.2634
vn 0.1492 0.9633 -0.2233
vn 0.2186 0.9193 -0.3272
vn 0.2980 0.8440 -0.4460
vn 0.3880 0.7157 -0.5807
vn 0.4802 0.5028 -0.7187
vn 0.5459 0.1856 -0.8170
vn 0.0285 0.9987 -0.0427
vn 0.5459 -0.1856 -0.8170
vn 0.0868 0.9877 -0.1299
vn 0.7187 0.5028 -0.4802
vn 0.8170 0.1856 -0.5459
vn 0.0427 0.9987 -0.0285
vn 0.8170 -0.1856 -0.5459
vn 0.1299 0.9877 -0.0868
vn 0.2233 0.9633 -0.1492
vn 0.3272 0.9193 -0.2186
vn 0.4460 0.8440 -0.2980
vn 0.5807 0.7157 -0.3880
vn 0.3859 0.9193 -0.0768
vn 0.5261 0.8440 -0.1046
vn 0.6850 0.7157 -0.1362
vn 0.8478 0.5028 -0.1686
vn 0.9638 0.1856 -0.1917
vn 0.0503 0.9987 -0.0100
vn 0.9638 -0.1856 -0.1917
vn 0.1533 0.9877 -0.0305
vn 0.2634 0.9633 -0.0524
vn 0.9638 0.1856 0.1917
vn 0.0503 0.9987 0.0100
vn 0.9638 -0.1856 0.1917
vn 0.1533 0.9877 0.0305
vn 0.2634 0.9633 0.0524
vn 0.3859 0.9193 0.0768
vn 0.5261 0.8440 0.1046
vn 0.6850 0.7157 0.1362
vn 0.8478 0.5028 0.1686
vn 0.3272 0.9193 0.2186
vn 0.4460 0.8440 0.2980
vn 0.5807 0.7157 0.3880
vn 0.7187 0.5028 0.4802
vn 0.8170 0.1856 0.5459
vn 0.0427 0.9987 0.0285
vn 0.8170 -0.1856 0.5459
vn 0.1299 0.9877 0.0868
vn 0.2233 0.9633 0.1492
vn 0.5459 0.1856 0.8170
vn 0.0285 0.9987 0.0427
vn 0.5459 -0.1856 0.8170
vn 0.0868 0.9877 0.1299
vn 0.1492 0.9633 0.2233
vn 0.2186 0.9193 0.3272
vn 0.2980 0.8440 0.4460
vn 0.3880 0.7157 0.5807
vn 0.4802 0.5028 0.7187
vn 0.1046 0.8440 0.5261
vn 0.1362 0.7157 0.6850
vn 0.1686 0.5028 0.8478
vn 0.1917 0.1856 0.9638
vn 0.0100 0.9987 0.0503
vn 0.1917 -0.1856 0.9638
vn 0.0305 0.9877 0.1533
vn 0.0524 0.9633 0.2634
vn 0.0768 0.9193 0.3859
vn -0.1917 -0.1856 0.9638
vn -0.0305 0.9877 0.1533
vn -0.0524 0.9633 0.2634
vn -0.0768 0.9193 0.3859
vn -0.1046 0.8440 0.5261
vn -0.1362 0.7157 0.6850
vn -0.1686 0.5028 0.8478
vn -0.1917 0.1856 0.9638
vn -0.0100 0.9987 0.0503
vn -0.3880 0.7157 0.5807
vn -0.4802 0.5028 0.7187
vn -0.5459 0.1856 0.8170
vn -0.0285 0.9987 0.0427
vn -0.5459 -0.1856 0.8170
vn -0.0868 0.9877 0.1299
vn -0.1492 0.9633 0.2233
vn -0.2186 0.9193 0.3272
vn -0.2980 0.8440 0.4460
vn -0.1299 0.9877 0.0868
vn -0.2233 0.9633 0.1492
vn -0.3272 0.9193 0.2186
vn -0.4460 0.8440 0.2980
vn -0.5807 0.7157 0.3880
vn -0.7187 0.5028 0.4802
vn -0.8170 0.1856 0.5459
vn -0.0427 0.9987 0.0285
vn -0.8170 -0.1856 0.5459
vn -0.6850 0.7157 0.1362
vn -0.8478 0.5028 0.1686
vn -0.9638 0.1856 0.1917
vn -0.0503 0.9987 0.0100
vn -0.9638 -0.1856 0.1917
vn -0.1533 0.9877 0.0305
vn -0.2634 0.9633 0.0524
vn -0.3859 0.9193 0.0768
vn -0.5261 0.8440 0.1046
vn -0.2634 0.9633 -0.0524
vn -0.3859 0.9193 -0.0768
vn -0.5261 0.8440 -0.1046
vn -0.6850 0.7157 -0.1362
vn -0.8478 0.5028 -0.1686
vn -0.9638 0.1856 -0.1917
vn -0.0503 0.9987 -0.0100
vn -0.9638 -0.1856 -0.1917
vn -0.1533 0.9877 -0.0305
vn -0.7187 0.5028 -0.4802
vn -0.8170 0.1856 -0.5459
vn -0.0427 0.9987 -0.0285
vn -0.8170 -0.1856 -0.5459
vn -0.1299 0.9877 -0.0868
vn -0.2233 0.9633 -0.1492
vn -0.3272 0.9193 -0.2186
vn -0.4460 0.8440 -0.2980
vn -0.5807 0.7157 -0.3880
vn -0.1492 0.9633 -0.2233
vn -0.2186 0.9193 -0.3272
vn -0.2980 0.8440 -0.4460
vn -0.3880 0.7157 -0.5807
vn -0.4802 0.5028 -0.7187
vn -0.5459 0.1856 -0.8170
vn -0.0285 0.9987 -0.0427
vn -0.5459 -0.1856 -0.8170
vn -0.0868 0.9877 -0.1299
vn -0.1686 0.5028 -0.8478
vn -0.1917 0.1856 -0.9638
vn -0.0100 0.9987 -0.0503
vn -0.1917 -0.1856 -0.9637
vn -0.0305 0.9877 -0.1533
vn -0.0524 0.9633 -0.2634
vn -0.0768 0.9193 -0.3859
vn -0.1046 0.8440 -0.5261
vn -0.1362 0.7157 -0.6850
vn -0.1917 -0.1856 -0.9638
g Sphere_Sphere_Material
s off
f 145/1/1 11/2/1 2/3/1
f 2/3/2 12/4/2 3/5/2
f 3/5/3 13/6/3 4/7/3
f 4/7/4 14/8/4 5/9/4
f 5/9/5 15/10/5 6/11/5
f 1/12/6 98/13/6 8/14/6
f 6/11/7 16/15/7 7/16/7
f 144/17/8 8/14/8 9/18/8
f 145/1/9 9/18/9 10/19/9
f 9/18/10 19/20/10 10/19/10
f 10/19/11 20/21/11 11/2/11
f 11/2/12 21/22/12 12/4/12
f 12/4/13 22/23/13 13/6/13
f 13/6/14 23/24/14 14/8/14
f 14/8/15 24/25/15 15/10/15
f 8/14/16 98/26/16 17/27/16
f 15/10/17 25/28/17 16/15/17
f 8/14/18 18/29/18 9/18/18
f 22/23/19 32/30/19 23/24/19
f 23/24/20 33/31/20 24/25/20
f 17/27/21 98/32/21 26/33/21
f 24/25/22 34/34/22 25/28/22
f 17/27/23 27/35/23 18/29/23
f 18/29/24 28/36/24 19/20/24
f 19/20/25 29/37/25 20/21/25
f 20/21/26 30/38/26 21/22/26
f 22/23/27 30/38/27 31/39/27
f 28/36/28 38/40/28 29/37/28
f 29/37/29 39/41/29 30/38/29
f 31/39/30 39/41/30 40/42/30
f 31/39/31 41/43/31 32/30/31
f 33/31/32 41/43/32 42/44/32
f 26/33/33 98/45/33 35/46/33
f 33/31/34 43/47/34 34/34/34
f 26/33/35 36/48/35 27/35/35
f 27/35/36 37/49/36 28/36/36
f 42/44/37 50/50/37 51/51/37
f 35/46/38 98/52/38 44/53/38
f 42/44/39 52/54/39 43/47/39
f 36/48/40 44/53/40 45/55/40
f 36/48/41 46/56/41 37/49/41
f 37/49/42 47/57/42 38/40/42
f 38/40/43 48/58/43 39/41/43
f 39/41/44 49/59/44 40/42/44
f 40/42/45 50/50/45 41/43/45
f 46/56/46 56/60/46 47/57/46
f 47/57/47 57/61/47 48/58/47
f 48/58/48 58/62/48 49/59/48
f 49/59/49 59/63/49 50/50/49
f 51/51/50 59/63/50 60/64/50
f 44/53/51 98/65/51 53/66/51
f 51/51/52 61/67/52 52/54/52
f 44/53/53 54/68/53 45/55/53
f 45/55/54 55/69/54 46/56/54
f 60/64/55 68/70/55 69/71/55
f 53/66/56 98/72/56 62/73/56
f 60/64/57 70/74/57 61/67/57
f 53/66/58 63/75/58 54/68/58
f 54/68/59 64/76/59 55/69/59
f 55/69/60 65/77/60 56/60/60
f 57/61/61 65/77/61 66/78/61
f 57/61/62 67/79/62 58/62/62
f 58/62/63 68/70/63 59/63/63
f 66/78/64 74/80/64 75/81/64
f 66/78/65 76/82/65 67/79/65
f 67/79/66 77/83/66 68/70/66
f 69/71/67 77/83/67 78/84/67
f 62/73/68 98/85/68 71/86/68
f 69/71/69 79/87/69 70/74/69
f 62/73/70 72/88/70 63/75/70
f 63/75/71 73/89/71 64/76/71
f 64/76/72 74/80/72 65/77/72
f 78/84/73 88/90/73 79/87/73
f 71/86/74 81/91/74 72/88/74
f 72/88/75 82/92/75 73/89/75
f 73/89/76 83/93/76 74/80/76
f 75/81/77 83/93/77 84/94/77
f 75/81/78 85/95/78 76/82/78
f 76/82/79 86/96/79 77/83/79
f 78/84/80 86/96/80 87/97/80
f 71/86/81 98/98/81 80/99/81
f 84/94/82 94/100/82 85/95/82
f 85/95/83 95/101/83 86/96/83
f 87/97/84 95/101/84 96/102/84
f 80/99/85 98/103/85 89/104/85
f 87/97/86 97/105/86 88/90/86
f 80/99/87 90/106/87 81/91/87
f 81/91/88 91/107/88 82/92/88
f 82/92/89 92/108/89 83/93/89
f 84/94/90 92/108/90 93/109/90
f 89/104/91 100/110/91 90/106/91
f 91/107/92 100/110/92 101/111/92
f 91/107/93 102/112/93 92/108/93
f 93/109/94 102/112/94 103/113/94
f 93/109/95 104/114/95 94/100/95
f 94/100/96 105/115/96 95/101/96
f 96/102/97 105/115/97 106/116/97
f 89/104/98 98/117/98 99/118/98
f 96/102/99 107/119/99 97/105/99
f 103/113/100 113/120/100 104/114/100
f 104/114/101 114/121/101 105/115/101
f 106/116/102 114/121/102 115/122/102
f 99/118/103 98/123/103 108/124/103
f 106/116/104 116/125/104 107/119/104
f 99/118/105 109/126/105 100/110/105
f 100/110/106 110/127/106 101/111/106
f 101/111/107 111/128/107 102/112/107
f 103/113/108 111/128/108 112/129/108
f 110/130/109 118/131/109 119/132/109
f 110/130/110 120/133/110 111/134/110
f 112/135/111 120/133/111 121/136/111
f 112/135/112 122/137/112 113/138/112
f 113/138/113 123/139/113 114/140/113
f 115/141/114 123/139/114 124/142/114
f 108/143/115 98/144/115 117/145/115
f 115/141/116 125/146/116 116/147/116
f 108/143/117 118/131/117 109/148/117
f 122/137/118 132/149/118 123/139/118
f 124/142/119 132/149/119 133/150/119
f 117/145/120 98/151/120 126/152/120
f 124/142/121 134/153/121 125/146/121
f 117/145/122 127/154/122 118/131/122
f 118/131/123 128/155/123 119/132/123
f 119/132/124 129/156/124 120/133/124
f 121/136/125 129/156/125 130/157/125
f 121/136/126 131/158/126 122/137/126
f 127/154/127 137/159/127 128/155/127
f 128/155/128 138/160/128 129/156/128
f 130/157/129 138/160/129 139/161/129
f 130/157/130 140/162/130 131/158/130
f 131/158/131 141/163/131 132/149/131
f 133/150/132 141/163/132 142/164/132
f 126/152/133 98/165/133 135/166/133
f 133/150/134 143/167/134 134/153/134
f 126/152/135 136/168/135 127/154/135
f 140/162/136 5/9/136 141/163/136
f 142/164/137 5/9/137 6/11/137
f 135/166/138 98/169/138 1/12/138
f 142/164/139 7/16/139 143/167/139
f 136/168/140 1/12/140 144/17/140
f 137/159/141 144/17/141 145/1/141
f 137/159/142 2/3/142 138/160/142
f 139/161/143 2/3/143 3/5/143
f 139/161/144 4/7/144 140/162/144
f 145/1/1 10/19/1 11/2/1
f 2/3/2 11/2/2 12/4/2
f 3/5/3 12/4/3 13/6/3
f 4/7/4 13/6/4 14/8/4
f 5/9/5 14/8/5 15/10/5
f 6/11/7 15/10/7 16/15/7
f 144/17/8 1/12/8 8/14/8
f 145/1/9 144/17/9 9/18/9
f 9/18/10 18/29/10 19/20/10
f 10/19/11 19/20/11 20/21/11
f 11/2/12 20/21/12 21/22/12
f 12/4/13 21/22/13 22/23/13
f 13/6/14 22/23/14 23/24/14
f 14/8/15 23/24/15 24/25/15
f 15/10/17 24/25/17 25/28/17
f 8/14/18 17/27/18 18/29/18
f 22/23/19 31/39/19 32/30/19
f 23/24/20 32/30/20 33/31/20
f 24/25/22 33/31/22 34/34/22
f 17/27/23 26/33/23 27/35/23
f 18/29/24 27/35/24 28/36/24
f 19/20/25 28/36/25 29/37/25
f 20/21/26 29/37/26 30/38/26
f 22/23/27 21/22/27 30/38/27
f 28/36/28 37/49/28 38/40/28
f 29/37/29 38/40/29 39/41/29
f 31/39/30 30/38/30 39/41/30
f 31/39/31 40/42/31 41/43/31
f 33/31/32 32/30/32 41/43/32
f 33/31/34 42/44/34 43/47/34
f 26/33/35 35/46/35 36/48/35
f 27/35/36 36/48/36 37/49/36
f 42/44/37 41/43/37 50/50/37
f 42/44/39 51/51/39 52/54/39
f 36/48/40 35/46/40 44/53/40
f 36/48/41 45/55/41 46/56/41
f 37/49/42 46/56/42 47/57/42
f 38/40/43 47/57/43 48/58/43
f 39/41/44 48/58/44 49/59/44
f 40/42/45 49/59/45 50/50/45
f 46/56/46 55/69/46 56/60/46
f 47/57/47 56/60/47 57/61/47
f 48/58/48 57/61/48 58/62/48
f 49/59/49 58/62/49 59/63/49
f 51/51/50 50/50/50 59/63/50
f 51/51/52 60/64/52 61/67/52
f 44/53/53 53/66/53 54/68/53
f 45/55/54 54/68/54 55/69/54
f 60/64/55 59/63/55 68/70/55
f 60/64/57 69/71/57 70/74/57
f 53/66/58 62/73/58 63/75/58
f 54/68/59 63/75/59 64/76/59
f 55/69/60 64/76/60 65/77/60
f 57/61/61 56/60/61 65/77/61
f 57/61/62 66/78/62 67/79/62
f 58/62/63 67/79/63 68/70/63
f 66/78/64 65/77/64 74/80/64
f 66/78/65 75/81/65 76/82/65
f 67/79/66 76/82/66 77/83/66
f 69/71/67 68/70/67 77/83/67
f 69/71/69 78/84/69 79/87/69
f 62/73/70 71/86/70 72/88/70
f 63/75/71 72/88/71 73/89/71
f 64/76/72 73/89/72 74/80/72
f 78/84/73 87/97/73 88/90/73
f 71/86/74 80/99/74 81/91/74
f 72/88/75 81/91/75 82/92/75
f 73/89/76 82/92/76 83/93/76
f 75/81/77 74/80/77 83/93/77
f 75/81/78 84/94/78 85/95/78
f 76/82/79 85/95/79 86/96/79
f 78/84/80 77/83/80 86/96/80
f 84/94/82 93/109/82 94/100/82
f 85/95/83 94/100/83 95/101/83
f 87/97/84 86/96/84 95/101/84
f 87/97/86 96/102/86 97/105/86
f 80/99/87 89/104/87 90/106/87
f 81/91/88 90/106/88 91/107/88
f 82/92/89 91/107/89 92/108/89
f 84/94/90 83/93/90 92/108/90
f 89/104/91 99/118/91 100/110/91
f 91/107/92 90/106/92 100/110/92
f 91/107/93 101/111/93 102/112/93
f 93/109/94 92/108/94 102/112/94
f 93/109/95 103/113/95 104/114/95
f 94/100/96 104/114/96 105/115/96
f 96/102/97 95/101/97 105/115/97
f 96/102/99 106/116/99 107/119/99
f 103/113/100 112/129/100 113/120/100
f 104/114/101 113/120/101 114/121/101
f 106/116/102 105/115/102 114/121/102
f 106/116/104 115/122/104 116/125/104
f 99/118/105 108/124/105 109/126/105
f 100/110/106 109/126/106 110/127/106
f 101/111/107 110/127/107 111/128/107
f 103/113/108 102/112/108 111/128/108
f 110/130/109 109/148/109 118/131/109
f 110/130/110 119/132/110 120/133/110
f 112/135/111 111/134/111 120/133/111
f 112/135/112 121/136/112 122/137/112
f 113/138/113 122/137/113 123/139/113
f 115/141/114 114/140/114 123/139/114
f 115/141/116 124/142/116 125/146/116
f 108/143/117 117/145/117 118/131/117
f 122/137/118 131/158/118 132/149/118
f 124/142/119 123/139/119 132/149/119
f 124/142/121 133/150/121 134/153/121
f 117/145/122 126/152/122 127/154/122
f 118/131/123 127/154/123 128/155/123
f 119/132/124 128/155/124 129/156/124
f 121/136/125 120/133/125 129/156/125
f 121/136/126 130/157/126 131/158/126
f 127/154/127 136/168/127 137/159/127
f 128/155/128 137/159/128 138/160/128
f 130/157/129 129/156/129 138/160/129
f 130/157/130 139/161/130 140/162/130
f 131/158/131 140/162/131 141/163/131
f 133/150/132 132/149/132 141/163/132
f 133/150/134 142/164/134 143/167/134
f 126/152/135 135/166/135 136/168/135
f 140/162/136 4/7/136 5/9/136
f 142/164/137 141/163/137 5/9/137
f 142/164/145 6/11/145 7/16/145
f 136/168/140 135/166/140 1/12/140
f 137/159/141 136/168/141 144/17/141
f 137/159/142 145/1/142 2/3/142
f 139/161/143 138/160/143 2/3/143
f 139/161/144 3/5/144 4/7/144
