# Blender v2.90.0 OBJ File: 'burger.blend'
# www.blender.org
o Plane
v -1.060650 0.290057 0.000029
v 0.000019 0.290057 1.060670
v -0.005176 0.290057 -1.060650
v 1.060640 0.290057 -0.000029
v -0.707107 0.534690 -0.707091
v -0.707088 0.532716 0.707121
v 0.707107 0.525424 0.707091
v 0.707088 0.527397 -0.707121
v 0.000000 0.530057 0.000000
v -1.060650 0.536019 -0.353531
v -0.353534 0.530400 1.060670
v 1.060651 0.524094 0.353531
v 0.353534 0.529713 -1.060670
v -0.353563 0.533360 -1.060650
v -1.060641 0.535033 0.353575
v 0.353563 0.526753 1.060652
v 1.060640 0.525080 -0.353575
v 0.353544 0.528727 -0.353560
v -0.353544 0.531386 0.353560
v -0.353554 0.532373 -0.353546
v 0.353554 0.527740 0.353546
v 0.000010 0.529070 0.707106
v -0.707097 0.533703 0.000015
v -0.000010 0.531043 -0.707106
v 0.707097 0.526410 -0.000015
vt 0.750000 0.750000
vt 1.000000 0.750000
vt 0.750000 1.000000
vt 0.250000 0.750000
vt 0.500000 1.000000
vt 0.250000 1.000000
vt 0.500000 0.250000
vt 0.250000 0.500000
vt 0.250000 0.250000
vt 1.000000 0.250000
vt 0.750000 0.500000
vt 0.750000 0.250000
vt 0.500000 0.500000
vt 0.500000 0.000000
vt 0.750000 0.000000
vt 0.000000 0.250000
vt 0.000000 0.500000
vt 0.000000 0.000000
vt 0.250000 0.000000
vt 0.000000 0.750000
vt 0.500000 0.750000
vt 1.000000 0.500000
vt 1.000000 1.000000
vt 0.000000 1.000000
vt 1.000000 0.000000
vn 0.0052 1.0000 0.0014
vn -1.0000 0.0000 0.0000
vn 1.0000 -0.0000 -0.0000
vn -0.0000 -0.0000 -1.0000
vn 0.0000 0.0000 1.0000
g Plane_Plane_Material.008
s off
f 25/1/1 12/2/1 17/3/1
f 24/4/1 8/5/1 13/6/1
f 19/7/1 20/8/1 23/9/1
f 16/10/1 21/11/1 22/12/1
f 22/12/1 9/13/1 19/7/1
f 6/14/1 22/12/1 19/7/1
f 11/15/1 16/10/1 22/12/1
f 10/16/1 20/8/1 5/17/1
f 1/18/2 15/19/2 10/16/2
f 6/14/1 23/9/1 15/19/1
f 14/20/1 24/4/1 13/6/1
f 20/8/1 14/20/1 5/17/1
f 9/13/1 24/4/1 20/8/1
f 18/21/1 17/3/1 8/5/1
f 21/11/1 18/21/1 9/13/1
f 7/22/1 25/1/1 21/11/1
f 17/3/3 12/2/3 4/23/3
f 13/6/4 3/24/4 14/20/4
f 10/16/1 15/19/1 23/9/1
f 16/10/5 11/15/5 2/25/5
f 24/4/1 18/21/1 8/5/1
f 19/7/1 9/13/1 20/8/1
f 16/10/1 7/22/1 21/11/1
f 22/12/1 21/11/1 9/13/1
f 6/14/1 11/15/1 22/12/1
f 10/16/1 23/9/1 20/8/1
f 6/14/1 19/7/1 23/9/1
f 20/8/1 24/4/1 14/20/1
f 9/13/1 18/21/1 24/4/1
f 18/21/1 25/1/1 17/3/1
f 21/11/1 25/1/1 18/21/1
f 7/22/1 12/2/1 25/1/1
