# Blender v2.90.0 OBJ File: ''
# www.blender.org
o Cube
v 5.000000 0.700000 -1.099248
v 1.099248 0.700000 -5.000000
v 4.940739 0.700000 -1.776606
v 4.764756 0.700000 -2.433384
v 4.477398 0.700000 -3.049624
v 4.087398 0.700000 -3.606603
v 3.606603 0.700000 -4.087398
v 3.049624 0.700000 -4.477398
v 2.433384 0.700000 -4.764756
v 1.776606 0.700000 -4.940739
v 1.099248 -0.700000 -5.000000
v 5.000000 -0.700000 -1.099248
v 1.776606 -0.700000 -4.940739
v 2.433384 -0.700000 -4.764756
v 3.049624 -0.700000 -4.477398
v 3.606603 -0.700000 -4.087398
v 4.087398 -0.700000 -3.606603
v 4.477398 -0.700000 -3.049624
v 4.764756 -0.700000 -2.433384
v 4.940739 -0.700000 -1.776606
v 1.099248 0.700000 5.000000
v 5.000000 0.700000 1.099248
v 1.776606 0.700000 4.940739
v 2.433384 0.700000 4.764756
v 3.049624 0.700000 4.477398
v 3.606603 0.700000 4.087398
v 4.087398 0.700000 3.606603
v 4.477398 0.700000 3.049624
v 4.764756 0.700000 2.433384
v 4.940739 0.700000 1.776606
v 5.000000 -0.700000 1.099248
v 1.099248 -0.700000 5.000000
v 4.940739 -0.700000 1.776606
v 4.764756 -0.700000 2.433384
v 4.477398 -0.700000 3.049624
v 4.087398 -0.700000 3.606603
v 3.606603 -0.700000 4.087398
v 3.049624 -0.700000 4.477398
v 2.433384 -0.700000 4.764756
v 1.776606 -0.700000 4.940739
v -1.099248 0.700000 -5.000000
v -5.000000 0.700000 -1.099248
v -1.776606 0.700000 -4.940739
v -2.433384 0.700000 -4.764756
v -3.049624 0.700000 -4.477398
v -3.606603 0.700000 -4.087398
v -4.087398 0.700000 -3.606603
v -4.477398 0.700000 -3.049624
v -4.764756 0.700000 -2.433384
v -4.940739 0.700000 -1.776606
v -5.000000 -0.700000 -1.099248
v -1.099248 -0.700000 -5.000000
v -4.940739 -0.700000 -1.776606
v -4.764756 -0.700000 -2.433384
v -4.477398 -0.700000 -3.049624
v -4.087398 -0.700000 -3.606603
v -3.606603 -0.700000 -4.087398
v -3.049624 -0.700000 -4.477398
v -2.433384 -0.700000 -4.764756
v -1.776606 -0.700000 -4.940739
v -5.000000 0.700000 1.099248
v -1.099248 0.700000 5.000000
v -4.940739 0.700000 1.776606
v -4.764756 0.700000 2.433384
v -4.477398 0.700000 3.049624
v -4.087398 0.700000 3.606603
v -3.606603 0.700000 4.087398
v -3.049624 0.700000 4.477398
v -2.433384 0.700000 4.764756
v -1.776606 0.700000 4.940739
v -1.099248 -0.700000 5.000000
v -5.000000 -0.700000 1.099248
v -1.776606 -0.700000 4.940739
v -2.433384 -0.700000 4.764756
v -3.049624 -0.700000 4.477398
v -3.606603 -0.700000 4.087398
v -4.087398 -0.700000 3.606603
v -4.477398 -0.700000 3.049624
v -4.764756 -0.700000 2.433384
v -4.940739 -0.700000 1.776606
vt 0.205585 0.748518
vt 0.147815 0.715165
vt 0.125000 0.652481
vt 0.625000 0.097519
vt 0.375000 0.152481
vt 0.375000 0.097519
vt 0.625000 0.847519
vt 0.375000 0.902481
vt 0.375000 0.847519
vt 0.651862 0.803229
vt 0.632605 0.715165
vt 0.625000 0.652481
vt 0.625000 0.597519
vt 0.375000 0.652481
vt 0.375000 0.597519
vt 0.625494 0.580585
vt 0.374506 0.580585
vt 0.626960 0.564165
vt 0.373040 0.564165
vt 0.629355 0.548759
vt 0.370645 0.548759
vt 0.632605 0.534835
vt 0.367395 0.534835
vt 0.636612 0.484382
vt 0.363388 0.484382
vt 0.641253 0.471849
vt 0.358747 0.471849
vt 0.646388 0.459183
vt 0.353612 0.459183
vt 0.651862 0.446771
vt 0.348138 0.446771
vt 0.625000 0.402481
vt 0.625000 0.902481
vt 0.375000 0.919415
vt 0.625000 0.919415
vt 0.375000 0.935835
vt 0.625000 0.935835
vt 0.375000 0.951241
vt 0.625000 0.951241
vt 0.375000 0.965165
vt 0.625000 0.000000
vt 0.375000 0.034835
vt 0.375000 0.000000
vt 0.625000 0.034835
vt 0.375000 0.048759
vt 0.625000 0.048759
vt 0.375000 0.064165
vt 0.625000 0.064165
vt 0.375000 0.080585
vt 0.625000 0.080585
vt 0.348138 0.803229
vt 0.646389 0.790817
vt 0.353612 0.790817
vt 0.641253 0.778151
vt 0.358747 0.778151
vt 0.636612 0.765618
vt 0.363388 0.765618
vt 0.367395 0.715165
vt 0.629355 0.701241
vt 0.370645 0.701241
vt 0.626960 0.685835
vt 0.373040 0.685835
vt 0.625494 0.669415
vt 0.374506 0.669415
vt 0.375000 0.347519
vt 0.681472 0.387550
vt 0.625000 0.347519
vt 0.318528 0.387550
vt 0.686945 0.378071
vt 0.313055 0.378071
vt 0.692080 0.370195
vt 0.307920 0.370195
vt 0.696722 0.364162
vt 0.303278 0.364162
vt 0.700728 0.321722
vt 0.299272 0.321722
vt 0.703978 0.317080
vt 0.296022 0.317080
vt 0.706373 0.311945
vt 0.293627 0.311945
vt 0.707839 0.306472
vt 0.292161 0.306472
vt 0.625000 0.152481
vt 0.375000 0.402481
vt 0.125000 0.597519
vt 0.222519 0.500000
vt 0.277481 0.500000
vt 0.277481 0.750000
vt 0.222519 0.750000
vt 0.189165 0.744119
vt 0.173759 0.736935
vt 0.159835 0.727185
vt 0.138065 0.701241
vt 0.130881 0.685835
vt 0.126482 0.669415
vt 0.722519 0.500000
vt 0.777481 0.500000
vt 0.875000 0.597519
vt 0.875000 0.652481
vt 0.777481 0.750000
vt 0.873519 0.669415
vt 0.869119 0.685835
vt 0.861935 0.701241
vt 0.852185 0.715165
vt 0.840165 0.727185
vt 0.826241 0.736935
vt 0.810835 0.744119
vt 0.794415 0.748518
vt 0.722519 0.750000
vt 0.625000 0.965165
vn 0.0000 -1.0000 -0.0000
vn -1.0000 0.0000 0.0000
vn 0.0000 0.0000 1.0000
vn 0.0000 1.0000 -0.0000
vn 1.0000 0.0000 0.0000
vn 0.9962 0.0000 -0.0872
vn 0.9659 0.0000 -0.2588
vn 0.9063 0.0000 -0.4226
vn 0.8192 0.0000 -0.5736
vn 0.7071 0.0000 -0.7071
vn 0.5736 0.0000 -0.8192
vn 0.4226 0.0000 -0.9063
vn 0.2588 0.0000 -0.9659
vn 0.0872 0.0000 -0.9962
vn -0.0872 0.0000 0.9962
vn -0.2588 0.0000 0.9659
vn -0.4226 0.0000 0.9063
vn -0.5736 0.0000 0.8192
vn -0.7071 0.0000 0.7071
vn -0.8192 0.0000 0.5736
vn -0.9063 0.0000 0.4226
vn -0.9659 0.0000 0.2588
vn -0.9962 0.0000 0.0872
vn 0.0872 0.0000 0.9962
vn 0.2588 0.0000 0.9659
vn 0.4226 0.0000 0.9063
vn 0.5736 0.0000 0.8192
vn 0.7071 0.0000 0.7071
vn 0.8192 0.0000 0.5736
vn 0.9063 0.0000 0.4226
vn 0.9659 0.0000 0.2588
vn 0.9962 0.0000 0.0872
vn -0.0872 0.0000 -0.9962
vn -0.2588 0.0000 -0.9659
vn -0.4226 0.0000 -0.9063
vn -0.5736 0.0000 -0.8192
vn -0.7071 0.0000 -0.7071
vn -0.8192 0.0000 -0.5736
vn -0.9063 0.0000 -0.4226
vn -0.9659 0.0000 -0.2588
vn -0.9962 0.0000 -0.0872
vn 0.0000 0.0000 -1.0000
s off
f 73/1/1 77/2/1 72/3/1
f 61/4/2 51/5/2 72/6/2
f 21/7/3 71/8/3 32/9/3
f 23/10/4 27/11/4 22/12/4
f 1/13/5 31/14/5 12/15/5
f 12/15/6 3/16/6 1/13/6
f 20/17/7 4/18/7 3/16/7
f 19/19/8 5/20/8 4/18/8
f 18/21/9 6/22/9 5/20/9
f 17/23/10 7/24/10 6/22/10
f 16/25/11 8/26/11 7/24/11
f 15/27/12 9/28/12 8/26/12
f 14/29/13 10/30/13 9/28/13
f 13/31/14 2/32/14 10/30/14
f 62/33/15 73/34/15 71/8/15
f 70/35/16 74/36/16 73/34/16
f 69/37/17 75/38/17 74/36/17
f 68/39/18 76/40/18 75/38/18
f 67/41/19 77/42/19 76/43/19
f 66/44/20 78/45/20 77/42/20
f 65/46/21 79/47/21 78/45/21
f 64/48/22 80/49/22 79/47/22
f 63/50/23 72/6/23 80/49/23
f 32/9/24 23/10/24 21/7/24
f 40/51/25 24/52/25 23/10/25
f 39/53/26 25/54/26 24/52/26
f 38/55/27 26/56/27 25/54/27
f 37/57/28 27/11/28 26/56/28
f 36/58/29 28/59/29 27/11/29
f 35/60/30 29/61/30 28/59/30
f 34/62/31 30/63/31 29/61/31
f 33/64/32 22/12/32 30/63/32
f 52/65/33 43/66/33 41/67/33
f 60/68/34 44/69/34 43/66/34
f 59/70/35 45/71/35 44/69/35
f 58/72/36 46/73/36 45/71/36
f 57/74/37 47/75/37 46/73/37
f 56/76/38 48/77/38 47/75/38
f 55/78/39 49/79/39 48/77/39
f 54/80/40 50/81/40 49/79/40
f 53/82/41 42/83/41 50/81/41
f 41/67/42 11/84/42 52/65/42
f 72/3/1 51/85/1 52/86/1
f 51/85/1 53/82/1 59/70/1
f 53/82/1 54/80/1 55/78/1
f 55/78/1 56/76/1 57/74/1
f 57/74/1 58/72/1 59/70/1
f 59/70/1 60/68/1 52/86/1
f 52/86/1 11/87/1 12/15/1
f 11/87/1 13/31/1 12/15/1
f 13/31/1 14/29/1 15/27/1
f 15/27/1 16/25/1 17/23/1
f 17/23/1 18/21/1 19/19/1
f 19/19/1 20/17/1 17/23/1
f 20/17/1 12/15/1 17/23/1
f 12/15/1 31/14/1 32/88/1
f 31/14/1 33/64/1 32/88/1
f 33/64/1 34/62/1 35/60/1
f 35/60/1 36/58/1 37/57/1
f 37/57/1 38/55/1 39/53/1
f 39/53/1 40/51/1 32/88/1
f 32/88/1 71/89/1 72/3/1
f 71/89/1 73/1/1 72/3/1
f 73/1/1 74/90/1 75/91/1
f 75/91/1 76/92/1 77/2/1
f 77/2/1 78/93/1 79/94/1
f 79/94/1 80/95/1 77/2/1
f 80/95/1 72/3/1 77/2/1
f 51/85/1 59/70/1 52/86/1
f 53/82/1 55/78/1 59/70/1
f 55/78/1 57/74/1 59/70/1
f 72/3/1 52/86/1 12/15/1
f 13/31/1 15/27/1 17/23/1
f 33/64/1 35/60/1 32/88/1
f 35/60/1 37/57/1 39/53/1
f 39/53/1 32/88/1 35/60/1
f 73/1/1 75/91/1 77/2/1
f 13/31/1 17/23/1 12/15/1
f 12/15/1 32/88/1 72/3/1
f 61/4/2 42/83/2 51/5/2
f 21/7/3 62/33/3 71/8/3
f 22/12/4 1/13/4 2/96/4
f 1/13/4 3/16/4 9/28/4
f 3/16/4 4/18/4 5/20/4
f 5/20/4 6/22/4 7/24/4
f 7/24/4 8/26/4 9/28/4
f 9/28/4 10/30/4 2/96/4
f 2/96/4 41/97/4 42/98/4
f 41/97/4 43/66/4 42/98/4
f 43/66/4 44/69/4 45/71/4
f 45/71/4 46/73/4 47/75/4
f 47/75/4 48/77/4 49/79/4
f 49/79/4 50/81/4 47/75/4
f 50/81/4 42/98/4 47/75/4
f 42/98/4 61/99/4 62/100/4
f 61/99/4 63/101/4 62/100/4
f 63/101/4 64/102/4 65/103/4
f 65/103/4 66/104/4 67/105/4
f 67/105/4 68/106/4 69/107/4
f 69/107/4 70/108/4 62/100/4
f 62/100/4 21/109/4 22/12/4
f 21/109/4 23/10/4 22/12/4
f 23/10/4 24/52/4 25/54/4
f 25/54/4 26/56/4 27/11/4
f 27/11/4 28/59/4 29/61/4
f 29/61/4 30/63/4 27/11/4
f 30/63/4 22/12/4 27/11/4
f 1/13/4 9/28/4 2/96/4
f 3/16/4 5/20/4 9/28/4
f 5/20/4 7/24/4 9/28/4
f 22/12/4 2/96/4 42/98/4
f 43/66/4 45/71/4 47/75/4
f 63/101/4 65/103/4 62/100/4
f 65/103/4 67/105/4 69/107/4
f 69/107/4 62/100/4 65/103/4
f 23/10/4 25/54/4 27/11/4
f 43/66/4 47/75/4 42/98/4
f 42/98/4 62/100/4 22/12/4
f 1/13/5 22/12/5 31/14/5
f 12/15/6 20/17/6 3/16/6
f 20/17/7 19/19/7 4/18/7
f 19/19/8 18/21/8 5/20/8
f 18/21/9 17/23/9 6/22/9
f 17/23/10 16/25/10 7/24/10
f 16/25/11 15/27/11 8/26/11
f 15/27/12 14/29/12 9/28/12
f 14/29/13 13/31/13 10/30/13
f 13/31/14 11/84/14 2/32/14
f 62/33/15 70/35/15 73/34/15
f 70/35/16 69/37/16 74/36/16
f 69/37/17 68/39/17 75/38/17
f 68/39/18 67/110/18 76/40/18
f 67/41/19 66/44/19 77/42/19
f 66/44/20 65/46/20 78/45/20
f 65/46/21 64/48/21 79/47/21
f 64/48/22 63/50/22 80/49/22
f 63/50/23 61/4/23 72/6/23
f 32/9/24 40/51/24 23/10/24
f 40/51/25 39/53/25 24/52/25
f 39/53/26 38/55/26 25/54/26
f 38/55/27 37/57/27 26/56/27
f 37/57/28 36/58/28 27/11/28
f 36/58/29 35/60/29 28/59/29
f 35/60/30 34/62/30 29/61/30
f 34/62/31 33/64/31 30/63/31
f 33/64/32 31/14/32 22/12/32
f 52/65/33 60/68/33 43/66/33
f 60/68/34 59/70/34 44/69/34
f 59/70/35 58/72/35 45/71/35
f 58/72/36 57/74/36 46/73/36
f 57/74/37 56/76/37 47/75/37
f 56/76/38 55/78/38 48/77/38
f 55/78/39 54/80/39 49/79/39
f 54/80/40 53/82/40 50/81/40
f 53/82/41 51/5/41 42/83/41
f 41/67/42 2/32/42 11/84/42
